# xmcd CD database file
#
# Track frame offsets:
#	150
#	22052
#	50404
#	70057
#	90157
#	117138
#	134391
#	166356
#	183241
#	209851
#	241283
#
# Disc length: 3652 seconds
#
# Revision: 0
# Processed by: cddbd v1.5.1PL0 Copyright (c) Steve Scherf et al.
# Submitted via: CDex 1.51
#
DISCID=950e420b
DTITLE=JULIAN - JULIAN Y ORO DURO
DYEAR=2005
DGENRE=Merengue
TTITLE0=LA CABAÒA
TTITLE1=PALABRITAS
TTITLE2=SE DICE QUE
TTITLE3=TERMINELO USTED
TTITLE4=EL PIQUITO
TTITLE5=NEW YORK TA DURO
TTITLE6=LA CITA
TTITLE7=LA AREPA
TTITLE8=POR ESO ESTA CONMIGO
TTITLE9=TU ME RECORDARAS
TTITLE10=Y TE VI
EXTD=YEAR: 2005
EXTT0=
EXTT1=
EXTT2=
EXTT3=
EXTT4=
EXTT5=
EXTT6=
EXTT7=
EXTT8=
EXTT9=
EXTT10=
PLAYORDER=
